<svg xmlns="http://www.w3.org/2000/svg" viewBox="0 0 64 64">
  <rect width="64" height="64" rx="16" fill="#173c2c"/>
  <g fill="none" stroke="#fff4df" stroke-linecap="round" stroke-linejoin="round" stroke-width="2">
    <path d="M32 10c6 10 7 17 0 25-7-8-6-15 0-25Z"/>
    <path d="M16 20c10 3 15 8 16 18-10-2-15-8-16-18Z"/>
    <path d="M48 20c-10 3-15 8-16 18 10-2 15-8 16-18Z"/>
    <path d="M11 37c10-2 17 1 21 9-10 3-18-1-21-9Z"/>
    <path d="M53 37c-10-2-17 1-21 9 10 3 18-1 21-9Z"/>
  </g>
</svg>
