<svg width="93" height="105" viewBox="0 0 93 105" fill="none" xmlns="http://www.w3.org/2000/svg">
<g clip-path="url(#clip0_492_1286)">
<path d="M0 76.1733H5.45939C10.4004 76.1733 13.8125 79.5543 13.8125 83.962V84.0078C13.8125 88.4155 10.4004 91.8422 5.45939 91.8422H0V76.1733ZM5.45939 90.2073C9.43583 90.2073 11.9752 87.5196 11.9752 84.0536V84.0078C11.9752 80.5418 9.43583 77.8082 5.45939 77.8082H1.77168V90.2073H5.45939Z" fill="#45443A"/>
<path d="M16.6343 84.0536V84.0079C16.6343 79.6852 19.8889 75.9053 24.6724 75.9053C29.456 75.9053 32.6647 79.6459 32.6647 83.9621V84.0079C32.6647 88.3305 29.41 92.1104 24.6265 92.1104C19.843 92.1104 16.6343 88.3698 16.6343 84.0536ZM30.834 84.0536V84.0079C30.834 80.4503 28.2289 77.5402 24.6331 77.5402C21.0372 77.5402 18.4781 80.4045 18.4781 83.9621V84.0079C18.4781 87.5654 21.0832 90.4755 24.679 90.4755C28.2749 90.4755 30.834 87.6112 30.834 84.0536Z" fill="#45443A"/>
<path d="M36.1948 76.1733H42.9534C44.8826 76.1733 46.4312 76.7554 47.422 77.7428C48.1832 78.5014 48.6359 79.6001 48.6359 80.8295V80.8753C48.6359 83.4715 46.838 84.9953 44.3708 85.44L49.2003 91.8422H47.0218L42.4613 85.7539H37.9731V91.8422H36.2014V76.1733H36.1948ZM42.796 84.1647C45.1516 84.1647 46.838 82.9549 46.838 80.9407V80.8949C46.838 78.9723 45.3551 77.8082 42.8157 77.8082H37.9665V84.1647H42.796Z" fill="#45443A"/>
<path d="M50.7881 89.2918L52.0676 88.1931C53.0322 89.6449 54.023 90.4297 55.6635 90.4297C57.4352 90.4297 58.741 89.1545 58.741 86.6694V76.1733H60.5389V86.6498C60.5389 88.4874 60.0008 89.8738 59.1019 90.7698C58.2291 91.6199 57.0349 92.0646 55.6438 92.0646C53.2816 92.0646 51.7789 90.9005 50.7881 89.2918Z" fill="#45443A"/>
<path d="M64.9551 76.1733H76.3201V77.7821H66.7333V83.1315H75.3096V84.7402H66.7333V90.2204H76.4382V91.8292H64.9551V76.1733Z" fill="#45443A"/>
<path d="M81.2148 89.5601L82.3172 88.2587C83.9577 89.7367 85.5259 90.4757 87.7044 90.4757C89.8173 90.4757 91.2084 89.3574 91.2084 87.814V87.7683C91.2084 86.3165 90.421 85.4859 87.1204 84.7927C83.5049 84.008 81.8448 82.8439 81.8448 80.2739V80.2281C81.8448 77.7692 84.0233 75.9512 87.0089 75.9512C89.299 75.9512 90.9394 76.5986 92.5339 77.8738L91.5037 79.2406C90.047 78.0569 88.5837 77.5403 86.9695 77.5403C84.9288 77.5403 83.623 78.6586 83.623 80.0711V80.1169C83.623 81.5949 84.4301 82.4254 87.8882 83.1644C91.3922 83.923 93.0064 85.1982 93.0064 87.5982V87.644C93.0064 90.3318 90.7622 92.0779 87.6388 92.0779C85.1453 92.0648 83.0981 91.2408 81.2148 89.5601Z" fill="#45443A"/>
<path fill-rule="evenodd" clip-rule="evenodd" d="M79.9291 73.8911C79.0892 73.9042 78.6364 74.8067 79.0367 75.4672L79.7651 76.6181H79.9291H80.0932L80.8215 75.4672C81.2218 74.8067 80.769 73.9042 79.9291 73.8911Z" fill="#45443A"/>
<path d="M12.9397 99.7227H15.2494C15.899 99.7227 16.4108 99.9123 16.7455 100.239C17.0211 100.52 17.1786 100.906 17.1786 101.358V101.371C17.1786 102.221 16.6668 102.731 15.9384 102.934L17.3361 104.889H16.2599L14.9869 103.091H13.8452V104.889H12.9331V99.7227H12.9397ZM15.1838 102.286C15.8334 102.286 16.2534 101.946 16.2534 101.423V101.41C16.2534 100.854 15.8531 100.553 15.1772 100.553H13.8518V102.286H15.1838Z" fill="#45443A"/>
<path d="M19.6196 99.7227H23.4648V100.534H20.5317V101.881H23.1302V102.692H20.5317V104.078H23.5042V104.889H19.6196V99.7227Z" fill="#45443A"/>
<path d="M25.5518 104.143L26.1029 103.496C26.6016 103.927 27.0938 104.169 27.7434 104.169C28.3077 104.169 28.662 103.908 28.662 103.522V103.509C28.662 103.143 28.4521 102.94 27.494 102.718C26.3917 102.449 25.7683 102.129 25.7683 101.174V101.161C25.7683 100.278 26.5098 99.6636 27.54 99.6636C28.2946 99.6636 28.8983 99.8925 29.4232 100.311L28.9311 100.998C28.4652 100.651 27.9993 100.468 27.5203 100.468C26.9888 100.468 26.6738 100.743 26.6738 101.083V101.096C26.6738 101.495 26.91 101.671 27.9009 101.907C28.9967 102.175 29.5676 102.561 29.5676 103.417V103.43C29.5676 104.398 28.8064 104.974 27.7171 104.974C26.9232 104.967 26.1751 104.693 25.5518 104.143Z" fill="#45443A"/>
<path d="M31.7329 102.325V102.312C31.7329 100.86 32.8615 99.6375 34.4495 99.6375C36.0374 99.6375 37.1529 100.841 37.1529 102.293V102.306C37.1529 103.757 36.0243 104.98 34.4364 104.98C32.8484 104.98 31.7329 103.777 31.7329 102.325ZM36.2015 102.325V102.312C36.2015 101.305 35.4666 100.475 34.4364 100.475C33.4062 100.475 32.6844 101.292 32.6844 102.299V102.312C32.6844 103.319 33.4193 104.15 34.4495 104.15C35.4862 104.15 36.2015 103.326 36.2015 102.325Z" fill="#45443A"/>
<path d="M39.5805 99.7227H41.8903C42.5399 99.7227 43.0517 99.9123 43.3863 100.239C43.6619 100.52 43.8128 100.906 43.8128 101.358V101.371C43.8128 102.221 43.301 102.731 42.5727 102.934L43.9703 104.889H42.8942L41.6212 103.091H40.4795V104.889H39.5674V99.7227H39.5805ZM41.8246 102.286C42.4742 102.286 42.8942 101.946 42.8942 101.423V101.41C42.8942 100.854 42.4939 100.553 41.8181 100.553H40.4926V102.286H41.8246Z" fill="#45443A"/>
<path d="M47.5137 100.566H45.8667V99.7227H50.0728V100.566H48.4258V104.895H47.5071V100.566H47.5137Z" fill="#45443A"/>
<path d="M62.9209 104.15L63.4721 103.502C63.9708 103.934 64.4629 104.176 65.1125 104.176C65.6768 104.176 66.0312 103.914 66.0312 103.529V103.515C66.0312 103.149 65.8212 102.947 64.8632 102.724C63.7608 102.456 63.1374 102.136 63.1374 101.181V101.168C63.1374 100.278 63.8789 99.6702 64.9091 99.6702C65.6637 99.6702 66.2674 99.899 66.7923 100.318L66.3002 101.004C65.8343 100.658 65.3684 100.475 64.8894 100.475C64.3579 100.475 64.043 100.749 64.043 101.089V101.102C64.043 101.501 64.2792 101.678 65.27 101.913C66.3658 102.181 66.9367 102.567 66.9367 103.43V103.444C66.9367 104.411 66.1755 104.987 65.0863 104.987C64.2923 104.974 63.5443 104.699 62.9209 104.15Z" fill="#45443A"/>
<path d="M69.3315 99.729H71.3788C72.5862 99.729 73.3473 100.416 73.3473 101.455V101.469C73.3473 102.626 72.4156 103.234 71.2738 103.234H70.2436V104.895H69.3315V99.729ZM71.3001 102.417C71.9891 102.417 72.4221 102.031 72.4221 101.495V101.482C72.4221 100.873 71.9825 100.56 71.3001 100.56H70.2436V102.423H71.3001V102.417Z" fill="#45443A"/>
<path d="M76.9171 99.6963H77.7635L80.047 104.902H79.0825L78.5575 103.653H76.1034L75.5719 104.902H74.6401L76.9171 99.6963ZM78.2229 102.848L77.3239 100.782L76.4381 102.848H78.2229Z" fill="#45443A"/>
<path d="M57.5794 104.241C57.1594 104.673 56.6476 104.961 56.0242 104.993C55.0597 105.039 54.3116 104.496 54.2657 103.6V103.587C54.2329 102.92 54.6003 102.423 55.2959 102.09C54.9809 101.73 54.83 101.41 54.8103 101.037V101.024C54.7775 100.331 55.309 99.6963 56.2342 99.6505C57.0544 99.6113 57.6384 100.134 57.6713 100.828V100.841C57.7041 101.521 57.271 101.946 56.5951 102.24L57.5269 103.097C57.7106 102.79 57.8812 102.443 58.0322 102.077L58.7408 102.404C58.5571 102.829 58.3471 103.241 58.0978 103.62L58.9508 104.405L58.3012 104.921L57.5794 104.241ZM57.0348 103.738L55.8208 102.619C55.3484 102.848 55.1581 103.175 55.1778 103.509V103.522C55.1975 103.954 55.5781 104.254 56.0833 104.228C56.4376 104.222 56.7526 104.032 57.0348 103.738ZM56.8642 100.932V100.919C56.8445 100.573 56.5886 100.35 56.2408 100.363C55.8733 100.383 55.6371 100.651 55.6568 101.011V101.024C55.6699 101.279 55.7815 101.469 56.0899 101.769C56.6148 101.554 56.8838 101.298 56.8642 100.932Z" fill="#45443A"/>
<path fill-rule="evenodd" clip-rule="evenodd" d="M31.8509 3.84555C31.28 4.27062 30.3417 4.65646 29.7708 5.08153C28.4978 5.9186 27.3429 6.38945 26.2405 7.56004C25.3875 8.46251 24.5214 9.33228 23.629 10.0516C22.9203 10.9476 22.2182 11.85 21.5095 12.746C19.4557 15.3553 20.0725 14.976 18.7339 17.4741C18.6158 17.6703 18.5108 17.7226 18.4058 17.9319C17.3625 20.2011 16.3716 23.7129 15.827 26.8781C15.7417 27.3816 15.9058 26.9565 15.827 27.4928C15.7089 28.3364 15.1511 28.441 15.4924 33.1692C15.5711 34.2874 15.8664 35.7719 16.2076 37.2041C16.4373 38.172 16.6866 39.1202 16.9097 39.9115C17.0344 40.3497 17.2903 40.5851 17.3231 40.9317C17.4478 42.1088 18.7273 43.6064 19.0292 44.5546C19.062 44.6593 19.0948 44.7835 19.1341 44.9274C19.2654 44.9339 19.0685 44.7966 19.1932 44.8031C19.3048 45.9149 20.8533 47.5825 21.726 48.9492C22.4938 50.1591 23.7274 51.3885 24.8691 52.4937C26.5489 54.1286 26.9361 54.8545 28.9834 56.1755C30.4794 57.1368 31.7852 57.8954 33.3601 58.8044C34.2131 59.3014 33.8588 58.9614 34.5084 59.2687C35.6829 59.8312 37.8877 60.871 40.4205 61.0933C43.918 61.4007 44.3314 62.0873 50.7422 61.5315C51.5231 61.4661 56.674 60.9429 60.4208 58.4644C62.2647 57.7843 62.3697 57.3461 62.9668 57.1041C64.0954 56.3782 65.6637 55.1357 66.6414 54.3313C68.4787 52.8207 69.5286 51.7613 70.8737 50.2702C72.2386 48.8839 74.0562 45.6533 74.6992 43.7699C75.6244 42.135 76.1428 41.0886 76.589 38.7213C76.7924 37.6553 77.2321 35.4122 77.2518 34.4444C77.2715 33.4438 77.7176 32.3517 77.5799 31.6847C77.4092 30.8672 77.3371 29.7882 77.2911 28.6634C77.1927 26.1195 76.9959 25.1647 76.2609 22.9151C74.6008 17.3171 75.362 18.5989 71.858 13.086C71.3527 12.4975 70.9393 11.9154 70.4538 11.5492C70.4603 11.5492 70.1979 11.1568 70.2044 11.1568C68.9249 9.65926 69.417 10.0843 67.8619 8.5933C66.7136 7.49465 65.27 6.56602 64.2332 5.6374C62.5534 4.14637 60.5652 3.40739 59.1478 2.93654C51.9693 0.425328 53.2947 -0.137078 44.8104 0.0525703C41.8641 0.117966 42.166 0.287996 39.5478 0.968116C36.1423 1.82481 35.2695 1.60246 31.8509 3.84555Z" fill="#CAB431"/>
<mask id="mask0_492_1286" style="mask-type:luminance" maskUnits="userSpaceOnUse" x="15" y="0" width="63" height="62">
<path d="M31.8509 3.84555C31.28 4.27062 30.3417 4.65646 29.7708 5.08153C28.4978 5.9186 27.3429 6.38945 26.2405 7.56004C25.3875 8.46251 24.5214 9.33228 23.629 10.0516C22.9203 10.9476 22.2182 11.85 21.5095 12.746C19.4557 15.3553 20.0725 14.976 18.7339 17.4741C18.6158 17.6703 18.5108 17.7226 18.4058 17.9319C17.3625 20.2011 16.3716 23.7129 15.827 26.8781C15.7417 27.3816 15.9058 26.9565 15.827 27.4928C15.7089 28.3364 15.1511 28.441 15.4924 33.1692C15.5711 34.2874 15.8664 35.7719 16.2076 37.2041C16.4373 38.172 16.6866 39.1202 16.9097 39.9115C17.0344 40.3497 17.2903 40.5851 17.3231 40.9317C17.4478 42.1088 18.7273 43.6064 19.0292 44.5546C19.062 44.6593 19.0948 44.7835 19.1341 44.9274C19.2654 44.9339 19.0685 44.7966 19.1932 44.8031C19.3048 45.9149 20.8533 47.5825 21.726 48.9492C22.4938 50.1591 23.7274 51.3885 24.8691 52.4937C26.5489 54.1286 26.9361 54.8545 28.9834 56.1755C30.4794 57.1368 31.7852 57.8954 33.3601 58.8044C34.2131 59.3014 33.8588 58.9614 34.5084 59.2687C35.6829 59.8312 37.8877 60.871 40.4205 61.0933C43.918 61.4007 44.3314 62.0873 50.7422 61.5315C51.5231 61.4661 56.674 60.9429 60.4208 58.4644C62.2647 57.7843 62.3697 57.3461 62.9668 57.1041C64.0954 56.3782 65.6637 55.1357 66.6414 54.3313C68.4787 52.8207 69.5286 51.7613 70.8737 50.2702C72.2386 48.8839 74.0562 45.6533 74.6992 43.7699C75.6244 42.135 76.1428 41.0886 76.589 38.7213C76.7924 37.6553 77.2321 35.4122 77.2518 34.4444C77.2715 33.4438 77.7176 32.3517 77.5799 31.6847C77.4092 30.8672 77.3371 29.7882 77.2911 28.6634C77.1927 26.1195 76.9959 25.1647 76.2609 22.9151C74.6008 17.3171 75.362 18.5989 71.858 13.086C71.3527 12.4975 70.9393 11.9154 70.4538 11.5492C70.4603 11.5492 70.1979 11.1568 70.2044 11.1568C68.9249 9.65926 69.417 10.0843 67.8619 8.5933C66.7136 7.49465 65.27 6.56602 64.2332 5.6374C62.5534 4.14637 60.5652 3.40739 59.1478 2.93654C51.9693 0.425328 53.2947 -0.137078 44.8104 0.0525703C41.8641 0.117966 42.166 0.287996 39.5478 0.968116C36.1423 1.82481 35.2695 1.60246 31.8509 3.84555Z" fill="white"/>
</mask>
<g mask="url(#mask0_492_1286)">
<path d="M49.7775 65.8343C49.7775 66.8871 49.9284 67.6327 50.3156 68.1231C50.7027 68.6201 51.3327 68.8752 52.2972 68.9667C52.5531 68.9929 52.9272 68.9667 53.3274 68.9406C53.6555 68.921 53.9967 68.8948 54.3117 68.9013C54.7645 68.9013 55.0991 68.8556 55.4272 68.8098C55.729 68.764 56.0178 68.7248 56.3918 68.7248L62.9995 68.7379C64.325 68.7248 64.3184 68.2343 64.2922 66.4098C64.2856 66.122 64.2856 65.795 64.2856 65.4877C64.2856 64.4544 64.1806 63.807 63.9575 63.4081C63.7475 63.0222 63.4194 62.8587 62.9667 62.7934C62.3039 62.6953 61.4247 62.728 60.6176 62.7541C60.2698 62.7672 59.9417 62.7737 59.6399 62.7803C58.9902 62.7803 58.1503 62.7018 57.2383 62.6168C54.8563 62.3944 51.9232 62.1263 50.5059 63.0484C50.204 63.2446 50.0269 63.65 49.9219 64.147C49.8103 64.6506 49.7775 65.2588 49.7775 65.8343ZM49.8103 34.9084C49.8103 32.443 49.5807 32.443 46.9691 32.4757L46.2079 32.4822C45.8076 32.4822 45.5583 32.443 45.3155 32.3972C45.1055 32.358 44.8956 32.3188 44.5937 32.3188L37.297 32.1683C37.192 32.1683 37.0871 32.188 36.9821 32.2337C36.6343 32.3711 36.2865 32.7111 36.024 33.2016C35.7616 33.6921 35.5844 34.333 35.5844 35.0458C35.5844 35.5755 35.6828 36.151 35.9125 36.733C36.4112 37.9951 38.0188 37.9232 39.6396 37.8513C40.0202 37.8317 40.4073 37.8186 40.7682 37.8186L48.8654 37.3477C49.0951 37.3281 49.2788 37.2889 49.4101 37.2038C49.5347 37.1188 49.62 36.9815 49.6791 36.7592C49.7185 36.6022 49.7513 36.321 49.771 36.0136C49.7906 35.6147 49.8103 35.1831 49.8103 34.9084ZM29.5148 47.471C29.5148 50.597 30.0069 50.185 31.608 50.1261C32.251 50.1065 33.0647 50.0738 34.0883 50.2242C35.5844 50.44 36.4243 50.355 37.2642 50.2765C37.7629 50.2308 38.2616 50.1784 38.8981 50.1915C39.2721 50.1981 39.4493 50.2438 39.6396 50.2831C39.7839 50.3158 39.9283 50.3485 40.1711 50.3681C40.591 50.4008 40.8338 50.3485 41.0832 50.2896C41.2275 50.2569 41.3719 50.2242 41.5491 50.2111C41.8968 50.1719 42.3037 50.1654 42.7433 50.1523C44.1738 50.1196 45.8601 50.4793 46.1751 49.4329C46.2998 49.0209 46.3391 48.5174 46.3063 48.0269C46.2735 47.4972 46.1685 47.0002 46.0176 46.6928C45.7748 46.1958 45.2302 46.1762 44.4887 46.15C44.2459 46.1435 43.9769 46.1304 43.6948 46.1043C43.3404 46.0716 43.0451 46.0192 42.7564 45.9669C42.3037 45.8885 41.8509 45.8034 41.1685 45.7969C40.7879 45.7969 40.6107 45.7511 40.427 45.7119C40.2892 45.6792 40.1448 45.6465 39.9021 45.6334C39.1081 45.5811 36.9755 45.6203 34.961 45.7119C33.1894 45.7904 31.5095 45.9146 30.9124 46.0454C30.5187 46.1304 30.1644 46.2285 29.9216 46.4312C29.6657 46.634 29.5148 46.9479 29.5148 47.471ZM29.8166 40.199C29.541 41.0884 29.5148 42.4028 29.5148 43.3118C29.5148 43.6781 29.5541 44.005 29.6394 44.2666C29.7247 44.5151 29.8494 44.6982 30.0331 44.7833C30.1184 44.829 30.2234 44.8487 30.335 44.8487L33.7799 44.8225C34.7773 44.6721 35.8928 44.7113 36.9296 44.7571C38.7931 44.829 40.4139 44.8944 40.6238 43.7827C40.6501 43.6454 40.6829 42.9522 40.7157 42.4094C40.7288 42.102 40.742 41.8404 40.7551 41.7554C40.8207 41.0164 40.7945 40.4344 40.6304 40.0028C40.4729 39.5908 40.1776 39.3161 39.6986 39.1723C38.8981 38.9368 35.6303 39.1069 33.0909 39.2442C32.0804 39.2965 30.1972 38.9565 29.8166 40.199ZM35.4138 27.316C33.8127 27.3225 32.1526 27.3944 30.2759 27.5056C29.9282 27.5252 29.6198 27.5383 29.3507 27.5514C28.4977 27.5906 28.3927 27.6756 28.163 27.8391C27.9137 28.0222 27.5462 28.3688 27.5003 29.2386L27.4872 29.5525C27.4675 30.0234 27.5528 30.4746 27.7037 30.8146C27.8481 31.1351 28.747 31.3444 28.9701 31.3574L31.9492 31.3378C32.5069 31.3574 33.6815 31.4621 34.4164 31.3705C35.4925 31.2332 36.818 31.0566 38.5831 31.1285C38.7931 31.1351 40.7945 31.1351 42.7564 31.1351C44.4625 31.1351 46.1423 31.1351 46.5819 31.1416H46.5951C48.9704 31.5275 50.3746 31.3901 51.6936 31.2659C52.7369 31.1678 53.7343 31.0697 55.1057 31.2397C55.8865 31.1939 56.3852 31.1351 56.8052 31.0959C57.7107 30.9978 58.2028 30.9454 60.237 31.122C61.5559 31.2397 62.9732 31.3051 64.0887 31.2005C65.1649 31.0959 65.9457 30.8408 66.0638 30.3242L66.1098 29.8141C66.1951 28.8462 65.8407 28.1726 65.6898 27.9241C65.5389 27.6822 65.1583 27.6299 64.3971 27.5252L64.0231 27.4729C62.8026 27.2963 61.5428 27.4075 59.8367 27.3814C58.1307 27.3552 56.3655 27.3879 54.9219 27.414H54.9023C54.8432 27.401 54.7842 27.3944 54.7251 27.3879C54.6726 27.3814 54.6135 27.3814 54.5611 27.3814C50.2959 27.3814 45.3024 27.1198 41.1357 27.3944C40.8404 27.4141 37.8613 27.2113 37.6054 27.2767C36.4834 27.3617 36.7655 27.3094 35.4138 27.316ZM34.2655 55.2859C34.2655 55.5017 34.2589 55.7306 34.2589 55.9333C34.2392 56.9469 34.2261 57.4505 34.9479 57.8363C35.2432 57.9933 35.7485 58.0783 36.0831 58.1371L36.1881 58.1568C36.6737 58.2418 37.1789 58.2156 37.6776 58.196C38.2026 58.1698 38.7341 58.1437 39.2524 58.2418C39.5674 58.3006 40.9322 58.5295 42.1855 58.5295C42.7367 58.5295 43.2682 58.4837 43.6685 58.3595C44.0491 58.2418 44.3116 58.0587 44.3641 57.7775C44.3706 57.7448 44.3772 57.7055 44.3772 57.6598C44.3772 53.821 43.7866 53.7818 42.1134 53.6706L41.8115 53.651L38.2222 53.6575C37.881 53.651 37.507 53.6052 37.133 53.5529C36.7327 53.5006 36.3193 53.4482 35.9387 53.4482C35.007 53.4482 34.2655 53.7752 34.2655 55.2859ZM29.5148 60.8969C29.5148 63.892 30.1709 64.3629 31.0896 64.3629C31.2996 64.3629 31.5227 64.3367 31.7589 64.3171C31.9033 64.304 32.0476 64.2844 32.192 64.2778C33.0975 64.2124 34.003 64.1732 34.9217 64.147C35.8272 64.1274 35.8797 64.1078 36.8246 64.1078C37.5792 63.977 37.9466 64.0555 38.0976 63.14C38.1304 62.9372 38.1304 62.6822 38.1238 62.2113C38.1238 61.9694 38.1172 61.6751 38.1172 61.3677C38.1172 60.8969 37.9598 60.4718 37.7301 60.1448C37.4676 59.7721 37.1133 59.517 36.7786 59.4451C36.1487 59.3077 35.1251 59.1966 33.7143 59.275C32.3363 59.3535 30.5778 59.6086 30.0988 59.8113C29.915 59.8898 29.7641 60.014 29.6657 60.1971C29.5738 60.3802 29.5148 60.6091 29.5148 60.8969ZM64.2987 37.727C64.2987 34.9477 62.6386 34.9608 60.7685 34.9804H60.5782C60.2829 34.9804 59.968 34.9411 59.6399 34.8954C58.9968 34.8038 58.5178 34.9411 58.0454 35.2093C57.6451 35.4382 57.6976 35.7717 57.7698 36.2491C57.7829 36.3472 57.8026 36.4518 57.8157 36.5564C57.9863 37.7009 58.006 38.6556 58.1307 39.8001C58.1963 40.3886 58.2291 40.7352 58.5572 40.9445C59.0887 41.2846 59.8236 41.2126 60.4798 41.1407C60.716 41.1145 60.9457 41.0884 61.1556 41.0884C61.7265 41.0818 62.2055 41.1538 62.6058 41.2192C62.8748 41.2584 63.111 41.2976 63.3079 41.2976C64.0297 41.3107 64.2987 40.7418 64.2987 37.727ZM51.5164 41.7358C52.0151 41.7358 52.4744 41.7031 52.9272 41.6442C53.3734 41.5854 53.813 41.5069 54.2395 41.4219C56.2343 41.0164 57.3957 42.3505 57.4417 39.9832C57.4876 37.8774 55.9653 38.2763 54.2395 38.3483C54.082 38.3548 53.9508 38.3614 53.8655 38.3614C53.3799 38.3614 52.7697 38.3221 52.1463 38.2763C51.1621 38.2109 50.1319 38.139 49.5085 38.2306C49.3838 38.2502 49.2198 38.2567 49.0426 38.2698C48.2224 38.3221 46.9625 38.3941 46.8707 39.4862C46.8575 39.617 46.8969 39.9963 46.9494 40.3625C46.9953 40.6698 47.0544 40.9641 47.1069 41.0884C47.3103 41.5592 48.1174 41.5592 48.7473 41.5592C48.9048 41.5592 49.0492 41.5592 49.1738 41.5658L51.5164 41.7358ZM60.5716 56.7834C60.7422 54.5207 60.3617 54.1414 60.0401 54.1218C59.968 54.1153 59.8892 54.1284 59.8105 54.1414C59.7514 54.1545 59.6924 54.1611 59.6267 54.1611C59.1871 54.1741 58.9312 54.3376 58.5769 54.2395C57.9141 54.0499 56.6215 53.9322 55.9259 54.3311C55.5256 54.5404 55.5322 54.7431 55.5847 55.7502L55.6109 56.3322C55.6306 56.7704 55.6241 57.4766 56.0112 57.7579C56.5886 58.1829 57.6582 58.0979 58.6425 58.0652C60.3813 58.0064 60.4995 57.7448 60.5716 56.7834ZM57.153 45.9342L57.1726 46.4378C57.212 47.5561 57.2514 48.5828 57.7435 49.1256C57.9338 49.3348 58.1372 49.4722 58.3669 49.5506C58.6031 49.6291 58.8656 49.6553 59.174 49.6422C59.3577 49.6357 59.6924 49.6357 60.1057 49.6422C61.4706 49.6618 63.7213 49.6945 64.0756 49.2891C64.2594 49.0732 64.2725 48.4389 64.279 47.8307C64.279 47.6476 64.2856 47.458 64.2922 47.2879C64.3709 45.3914 63.7344 44.9598 62.8223 44.9206C62.4942 44.9075 62.1202 44.9402 61.7396 44.9729C61.5362 44.9925 61.3197 45.0121 61.1031 45.0252C60.7226 45.0448 60.4666 45.0121 60.2173 44.9794C60.0336 44.9533 59.8564 44.9271 59.6333 44.9271H59.6005C59.4233 44.9271 59.1937 44.9271 58.9443 44.9402C58.1241 44.9795 57.1136 45.156 57.153 45.9342ZM40.9388 68.6921C40.9257 68.5547 40.906 68.4174 40.8863 68.2866C40.8601 68.1297 40.8273 67.9727 40.7879 67.8354C40.6763 67.443 40.591 67.103 40.5254 66.8218C40.3614 66.1482 40.2761 65.795 39.9808 65.6315C39.6396 65.4354 38.99 65.4419 37.6382 65.455L36.5424 65.4615C36.2406 65.4615 36.0765 65.5334 35.8928 65.625C35.8075 65.6642 35.7091 65.71 35.591 65.7558C35.5778 65.9389 35.5582 66.0632 35.5319 66.1809C35.5057 66.3444 35.4794 66.4948 35.4794 66.7956C35.4794 67.3057 35.5253 67.7373 35.5713 68.2278L35.6172 68.7117H40.9388V68.6921ZM47.4678 50.1981C47.7696 50.3158 48.1568 50.2635 48.5702 50.2504C49.4297 50.2308 50.0662 50.0738 50.3746 49.9169C50.7093 49.7468 50.998 49.3152 51.0964 48.7397C51.1949 48.1381 51.1358 47.5822 51.1358 47.0983C51.1358 46.8629 51.1555 46.6601 51.0636 46.4509C50.9324 46.1566 50.7487 45.9081 50.5977 45.7511C50.2106 45.3195 48.872 45.3587 48.0058 45.3784C47.8287 45.3849 47.6712 45.3849 47.5531 45.3849C46.9822 45.3849 46.8444 46.1108 46.8444 46.9609C46.8444 47.3795 46.8772 47.798 46.8969 48.1119C46.91 48.3016 46.9231 48.452 46.9231 48.5566C46.9231 48.8836 46.9494 49.0405 46.9494 49.3675C46.9428 49.9038 46.9822 50.0019 47.4678 50.1981ZM52.9665 59.8636C52.9665 61.4658 55.6503 61.505 57.6582 61.5312C58.1897 61.5377 58.6753 61.5443 59.0559 61.5835L61.1622 61.6228C61.9693 61.4724 62.5598 61.5443 63.0061 61.5966C63.6163 61.6685 63.9247 61.7078 64.1609 60.995C64.2922 60.5895 64.3447 60.0009 64.2528 59.5235C64.1806 59.1573 64.0297 58.863 63.7738 58.778C63.6294 58.7323 63.1242 58.8042 62.5992 58.8892C62.1661 58.9546 61.7199 59.02 61.4378 59.02C60.3223 59.02 59.1674 58.9481 57.9601 58.8696C56.6411 58.7846 55.2632 58.6996 53.7999 58.6996C53.5505 58.6996 53.3471 58.8107 53.2028 59.0069C53.0518 59.2096 52.9665 59.5039 52.9665 59.8636ZM49.4691 51.349C49.4691 53.0035 51.0767 52.997 52.166 52.9905H52.2972C52.7041 52.9905 53.019 53.0363 53.3274 53.0755C53.6162 53.1147 53.8917 53.154 54.2198 53.154C54.4757 53.154 54.8038 53.167 55.1844 53.1801C56.628 53.2324 58.7606 53.3109 59.5218 52.7224L59.548 52.5196C59.5874 52.2123 59.6136 52.0553 59.6136 51.9049C59.6136 51.7545 59.5939 51.5975 59.548 51.2902C59.4693 50.6951 57.0939 50.9109 56.6149 50.937C56.2605 50.9567 55.9128 50.9763 55.5912 50.9763C55.2172 50.9828 54.9154 50.9436 54.607 50.9043C54.3248 50.8716 54.0295 50.8324 53.6686 50.8259L51.6607 50.6624C51.2867 50.6624 51.0308 50.7081 50.7749 50.7474C50.6502 50.767 50.5256 50.7932 50.3878 50.8062C50.2828 50.8193 50.1712 50.8128 50.0662 50.8128C49.7513 50.8062 49.4691 50.7997 49.4691 51.349ZM29.5213 34.333V34.7253C29.5213 35.6213 29.5213 36.3145 29.5869 36.8507C29.7838 38.3287 30.5712 38.5052 33.6684 38.0998C35.2891 37.8905 35.2169 37.3477 35.0529 36.1314C34.9873 35.6409 34.9085 35.0458 34.9085 34.3264C34.9085 34.2414 34.9217 34.1368 34.9348 34.0256C34.9938 33.594 35.0726 32.9858 34.3639 32.6392C34.0555 32.4888 33.6552 32.4822 33.2353 32.4822C32.9269 32.4822 32.6054 32.4757 32.3035 32.4169C32.0017 32.3515 31.6998 32.3188 31.4177 32.3188C30.9649 32.3188 30.5581 32.4103 30.2366 32.6261C29.9216 32.8419 29.6854 33.182 29.5804 33.6855C29.541 33.8752 29.5213 34.091 29.5213 34.333ZM29.5476 52.258C29.5476 52.657 29.5345 53.1213 29.5279 53.5987C29.5016 54.7104 29.5607 55.9202 29.5738 56.8815C29.5935 58.111 30.125 58.6407 31.713 58.5557C33.4125 58.4641 33.0712 58.0848 33.1959 56.2995C33.3075 54.7365 33.6027 54.8412 33.2287 53.1605C33.1959 53.0101 33.1565 52.8466 33.1237 52.6635C32.8875 51.506 32.835 51.506 31.4374 51.5452C31.1093 51.5518 30.7221 51.5648 30.2628 51.5648C30.0791 51.5648 29.8822 51.6368 29.7444 51.7676C29.6263 51.8853 29.5476 52.0488 29.5476 52.258ZM50.4796 34.7319V34.9935C50.4796 36.8769 50.9914 37.2692 51.5098 37.2692C51.7329 37.2692 51.9691 37.1973 52.1594 37.1385C52.1922 37.1254 53.4259 37.2954 53.7015 37.3085C53.7736 37.3085 56.0834 37.2496 56.1556 37.2562C56.2146 37.2562 56.2737 37.2627 56.3327 37.2627C56.6608 37.2627 56.8774 37.145 56.8774 36.1706C56.8774 35.6278 56.8839 35.1243 56.897 34.6796C56.9036 34.3591 56.9102 34.0648 56.9102 33.7836C56.9102 32.3318 56.7461 31.9525 55.5912 31.9525H55.3485C54.2395 31.946 51.3983 31.9395 50.939 32.3645C50.4731 32.7962 50.4731 33.8098 50.4796 34.7319ZM42.8483 44.5871C43.2289 44.5871 43.557 44.6263 43.9047 44.659C44.2788 44.6982 44.6659 44.7375 45.1383 44.7375H45.8601C47.8746 44.744 48.3011 44.8748 50.2434 44.4367L52.1529 44.2601C52.5728 44.1816 52.7697 44.1424 52.7697 43.5669C52.7697 42.7233 51.5689 42.5206 50.3025 42.5206C49.4757 42.5206 48.6226 42.6121 48.0386 42.671C47.8352 42.6906 47.6646 42.7102 47.54 42.7167C47.3169 42.7364 46.8182 42.7167 46.2079 42.6971C45.6042 42.6775 44.889 42.6513 44.1803 42.6513C43.511 42.6513 42.8614 42.671 42.3955 42.7429C41.5687 42.8606 41.5884 43.1026 41.6934 43.7958C41.8181 44.6067 41.9428 44.5871 42.8483 44.5871ZM53.3734 43.2922C53.4521 43.508 53.6162 43.6584 53.9114 43.7958C54.8104 44.2274 58.2488 44.1685 60.2764 44.1293C60.7422 44.1228 61.1359 44.1162 61.3853 44.1162C61.7396 44.1162 62.4877 44.1097 63.1439 44.005C63.7607 43.907 64.2987 43.7369 64.2987 43.423C64.2987 42.2328 63.5113 42.0824 62.7108 42.0824C62.5533 42.0824 62.4024 42.0889 62.2646 42.0955C62.1202 42.102 61.9759 42.102 61.8577 42.102L58.6162 42.2655C58.1241 42.2655 57.6385 42.2197 57.1333 42.174C56.2802 42.0955 55.3944 42.017 54.4167 42.1609C53.6883 42.259 53.0322 42.3309 53.3734 43.2922ZM45.0268 56.5284C45.0268 57.9867 45.6042 58.1698 46.5098 58.1698C46.6738 58.1698 46.8378 58.1633 47.0019 58.1568C47.4022 58.1437 47.8484 58.1306 48.3208 58.1764C49.8563 58.3203 50.1975 58.2876 50.7355 58.2418C51.1227 58.2091 51.0833 58.2091 52.1726 58.2091L52.6253 58.2156C53.8786 58.2287 54.8366 58.1829 54.8366 57.1497C54.8366 56.5153 54.8826 56.1556 54.6267 55.9464C54.3708 55.7371 53.9639 55.6783 53.3996 55.6783H47.0347C46.5819 55.6783 45.9389 55.724 45.4992 55.9202C45.2236 56.051 45.0268 56.2407 45.0268 56.5284ZM47.3825 60.2167C47.3759 60.0663 47.3103 59.9159 47.1659 59.7851C46.956 59.5955 46.8313 59.5693 46.1882 59.4974C45.7683 59.4516 45.2696 59.4647 44.7971 59.4843C44.5609 59.4908 44.3312 59.4974 44.1147 59.4974C43.7473 59.4974 43.4717 59.4581 43.1895 59.4189C42.8877 59.3731 42.5858 59.3339 42.1527 59.3339H39.4887C39.2984 59.3339 39.1146 59.347 38.9703 59.4058C38.839 59.4647 38.7406 59.5759 38.6947 59.7917C38.511 60.6353 38.9375 61.1192 39.7577 61.2958C39.9874 61.3481 40.2039 61.3808 40.3614 61.407L40.5123 61.4331C41.4572 61.4724 45.2958 62.1002 46.8969 61.8778C47.2972 61.819 47.4087 60.6157 47.3825 60.2167ZM54.9548 47.4383C55.0007 47.4383 55.7947 47.3991 55.9193 47.3402C56.254 47.1833 56.2343 47.0329 56.3196 46.6536C56.3721 46.4116 56.4115 46.1304 56.3918 45.8688C56.3721 45.6138 56.2934 45.3784 56.1228 45.2149C56.0112 45.1102 55.8668 45.0383 55.6634 45.0056C55.4535 44.9729 55.1975 45.0056 54.9548 45.0383C54.8301 45.0579 54.7054 45.071 54.5873 45.0775C54.3773 45.0906 54.2264 45.0514 54.0689 45.0121C53.918 44.9729 53.7605 44.9337 53.544 44.9533L52.6713 45.0252C52.1332 45.0645 51.8248 45.1037 51.7657 45.7773C51.6411 47.131 52.2316 47.301 52.6122 47.4122L53.4259 47.4056C54.1542 47.4187 54.2198 47.4253 54.9548 47.4383ZM55.9521 50.2373C56.0046 50.2373 56.149 50.1981 56.2802 50.1523C56.3983 50.113 56.5033 50.0673 56.5361 50.0411C56.569 50.0149 56.7396 49.6749 56.7921 49.2825C56.8117 49.1452 56.8117 49.0079 56.7921 48.8705C56.7658 48.7463 56.7199 48.622 56.6346 48.5239C56.5099 48.38 56.313 48.2689 56.0046 48.2296C55.775 48.1969 55.4928 48.2231 55.2238 48.2493C55.086 48.2623 54.9548 48.2754 54.8301 48.282C54.6135 48.2885 54.4495 48.2558 54.2855 48.2231C54.1214 48.1904 53.9508 48.1512 53.708 48.1708L52.1857 48.2427C52.0873 48.2493 51.9954 48.2623 51.9232 48.3146C51.851 48.3735 51.792 48.4912 51.7657 48.7136C51.6279 49.8122 52.645 50.0542 53.0518 50.1523L53.1306 50.1719L55.9521 50.2373ZM29.5148 66.9722C29.5148 67.5673 29.5476 67.9727 29.6198 68.2408C29.7772 68.8033 30.4006 68.6921 30.8927 68.6921H33.1106C34.5542 68.509 34.5476 67.9139 34.5345 66.4228L34.528 65.867C34.528 65.7754 34.5148 65.6969 34.482 65.625C34.4033 65.4419 34.2327 65.3176 33.9965 65.2392C33.7471 65.1542 33.4321 65.1215 33.0975 65.1215C32.041 65.1215 30.7812 65.3111 30.4597 65.4419C30.2037 65.5465 29.961 65.8277 29.7904 66.0435C29.6263 66.2659 29.5148 66.5602 29.5148 66.9722ZM39.8364 64.3432C39.9545 64.3432 40.2433 64.4152 40.6238 64.5133C41.4047 64.7095 42.5924 65.0103 43.4979 65.0103C44.1869 65.0103 44.7118 64.8337 44.7118 64.2909C44.7118 62.9241 44.5675 62.8849 43.826 62.6887C43.7144 62.656 43.5898 62.6233 43.4454 62.5841C41.9493 62.1394 41.5031 62.1459 40.3942 62.1721C40.0989 62.1786 39.7577 62.1852 39.3705 62.1852C38.8325 62.1852 38.6947 62.6102 38.6619 63.2446C38.6159 64.3236 38.5372 64.3432 39.8364 64.3432ZM40.053 51.9703C40.053 52.2057 40.1448 52.3627 40.2826 52.4673C40.4729 52.6112 40.7485 52.6569 40.9979 52.6569C41.4506 52.6569 41.9624 52.6635 42.4677 52.6635C44.1606 52.6766 45.8011 52.6962 47.4809 52.5131L47.8024 52.4804C48.0124 52.4608 48.183 52.4411 48.3208 52.415C48.8326 52.33 48.8457 52.1272 48.6751 51.1005C47.1003 50.924 46.6738 50.9632 46.0439 51.022C45.6239 51.0613 45.1121 51.1071 44.1344 51.1071C43.9375 51.1071 43.721 51.1005 43.5045 51.094C42.9139 51.0744 42.3168 51.0613 41.7722 51.1725C41.5819 51.2117 41.3719 51.2248 41.1619 51.2313C40.591 51.2706 40.053 51.2967 40.053 51.9703ZM42.7892 41.7881C43.1567 41.8404 42.7499 41.9908 44.5019 41.847C45.8536 41.7358 46.2735 41.2911 46.2735 40.0813C46.2735 39.0153 45.7683 38.5772 45.0924 38.4006C44.6265 38.2763 44.305 38.3614 43.7801 38.3679L42.9008 38.5445C41.4572 38.5445 41.5556 39.0742 41.5556 39.9309C41.6869 41.4023 41.6737 41.4481 42.7892 41.7881ZM44.8824 54.0041C44.8824 54.7692 46.0701 54.8673 47.1594 54.8673C47.4022 54.8673 47.6121 54.8608 47.8155 54.8608C48.0058 54.8543 48.183 54.8543 48.3208 54.8543L51.5689 54.6908C52.5663 54.6842 53.4455 54.8608 54.0624 54.7169C54.2789 54.6646 54.187 54.6385 54.4429 54.5665C54.6135 54.0891 54.5086 53.8537 53.9771 53.6444C53.6621 53.5202 53.2618 53.4875 52.8353 53.4679C52.7106 53.4613 52.5138 53.4482 52.271 53.4286C51.3786 53.3632 49.771 53.239 48.2749 53.239C46.4966 53.239 44.8824 53.4025 44.8824 54.0041ZM41.326 66.6256C41.3325 66.704 41.3456 66.776 41.3588 66.8414C41.4638 67.3907 41.7328 68.267 41.6475 68.6921H49.6463C49.3248 68.0447 49.2395 66.861 48.6751 66.7564C47.4218 66.0828 46.4048 65.8801 45.1121 65.9651H44.9612H44.8168C44.5412 65.9651 44.2131 65.9454 43.885 65.9324C43.5373 65.9127 43.1698 65.8931 42.822 65.8931C42.0412 65.8931 41.385 65.9912 41.3325 66.4425C41.3194 66.4882 41.3194 66.5471 41.326 66.6256ZM33.9177 51.8133C33.9177 52.1076 34.0293 52.2711 34.1933 52.3692C34.3705 52.4738 34.6198 52.5 34.8626 52.5131C34.9807 52.5196 35.1382 52.5262 35.3285 52.5392C35.7878 52.5719 36.444 52.6177 37.0871 52.6177C38.1894 52.6177 39.2721 52.4935 39.2721 51.9768C39.2721 51.3425 39.2065 51.2117 38.4978 51.2117C38.2747 51.2117 38.0123 51.2248 37.6842 51.2379C37.133 51.2575 36.3981 51.2902 35.4335 51.2902H35.4072C34.7904 51.2771 33.9177 51.2771 33.9177 51.8133ZM60.4732 50.8847C60.447 51.1071 60.4273 51.2117 60.4142 51.2771C60.3945 51.3752 60.3945 51.3752 60.447 51.7676C60.5651 52.5916 60.7226 53.1605 61.0244 53.5202C61.3197 53.8733 61.7593 54.0237 62.4352 54.0237C62.7895 54.0237 63.1242 53.9976 63.426 53.9453C64.22 53.9191 64.4037 53.0886 64.2462 51.8395C64.1084 51.3621 64.0166 50.767 63.5769 50.6231C62.5336 50.2831 61.7987 50.4204 60.9128 50.6035L60.4732 50.8847ZM60.2173 34.0714L60.5651 34.0779C62.1858 34.1106 63.5113 34.1433 64.0494 33.7771C64.3971 33.5417 64.3906 33.1101 63.8853 32.3449C62.8683 32.1618 61.195 31.9787 59.8761 32.1487C59.384 32.2141 58.7737 32.0572 58.4194 32.2076C58.1372 32.3253 58.0716 32.7242 57.9732 32.9596C57.796 33.3782 57.7304 33.849 58.0978 33.9864C58.649 34.2022 59.8826 34.0648 60.2173 34.0714ZM49.2395 62.0609C49.9284 62.244 50.0466 62.0021 50.7683 61.8713C51.2408 61.7863 51.6017 61.7928 51.8314 61.5704C52.1857 61.2304 52.1923 60.7007 52.1923 60.099C52.1923 59.7263 51.8182 59.4974 51.3392 59.3862L51.103 59.3274C49.8628 59.0135 48.977 58.8434 48.5373 59.1246C48.1568 59.3666 48.2421 60.2429 48.5177 61.4462C48.6161 61.8516 48.6948 61.9105 49.2395 62.0609ZM49.1279 64.2255C49.1279 63.5716 48.8982 63.1661 48.4914 62.9307C48.0715 62.6887 47.4612 62.6102 46.7197 62.6102C46.2342 62.6102 45.9848 62.8326 45.8536 63.1465L45.7814 63.31C45.4139 64.1078 45.3286 64.7618 45.6502 65.0364C45.9783 65.3176 46.8707 65.4746 48.5702 65.2196C48.8786 65.1738 49.1279 64.546 49.1279 64.2255ZM61.4312 55.7829C61.3591 56.62 61.3131 57.5747 62.0677 57.8102C62.4877 57.941 62.8683 57.941 63.4719 57.9279C64.2725 57.9213 64.2987 56.9927 64.2987 56.2276C64.2987 55.6586 64.1347 55.0112 63.2948 54.8019C63.0389 54.7366 62.6517 54.8346 62.2711 54.8346C61.3787 54.8412 61.4968 55.057 61.4312 55.7829Z" fill="white"/>
</g>
<mask id="mask1_492_1286" style="mask-type:luminance" maskUnits="userSpaceOnUse" x="15" y="0" width="63" height="62">
<path d="M31.8509 3.84555C31.28 4.27062 30.3417 4.65646 29.7708 5.08153C28.4978 5.9186 27.3429 6.38945 26.2405 7.56004C25.3875 8.46251 24.5214 9.33228 23.629 10.0516C22.9203 10.9476 22.2182 11.85 21.5095 12.746C19.4557 15.3553 20.0725 14.976 18.7339 17.4741C18.6158 17.6703 18.5108 17.7226 18.4058 17.9319C17.3625 20.2011 16.3716 23.7129 15.827 26.8781C15.7417 27.3816 15.9058 26.9565 15.827 27.4928C15.7089 28.3364 15.1511 28.441 15.4924 33.1692C15.5711 34.2874 15.8664 35.7719 16.2076 37.2041C16.4373 38.172 16.6866 39.1202 16.9097 39.9115C17.0344 40.3497 17.2903 40.5851 17.3231 40.9317C17.4478 42.1088 18.7273 43.6064 19.0292 44.5546C19.062 44.6593 19.0948 44.7835 19.1341 44.9274C19.2654 44.9339 19.0685 44.7966 19.1932 44.8031C19.3048 45.9149 20.8533 47.5825 21.726 48.9492C22.4938 50.1591 23.7274 51.3885 24.8691 52.4937C26.5489 54.1286 26.9361 54.8545 28.9834 56.1755C30.4794 57.1368 31.7852 57.8954 33.3601 58.8044C34.2131 59.3014 33.8588 58.9614 34.5084 59.2687C35.6829 59.8312 37.8877 60.871 40.4205 61.0933C43.918 61.4007 44.3314 62.0873 50.7422 61.5315C51.5231 61.4661 56.674 60.9429 60.4208 58.4644C62.2647 57.7843 62.3697 57.3461 62.9668 57.1041C64.0954 56.3782 65.6637 55.1357 66.6414 54.3313C68.4787 52.8207 69.5286 51.7613 70.8737 50.2702C72.2386 48.8839 74.0562 45.6533 74.6992 43.7699C75.6244 42.135 76.1428 41.0886 76.589 38.7213C76.7924 37.6553 77.2321 35.4122 77.2518 34.4444C77.2715 33.4438 77.7176 32.3517 77.5799 31.6847C77.4092 30.8672 77.3371 29.7882 77.2911 28.6634C77.1927 26.1195 76.9959 25.1647 76.2609 22.9151C74.6008 17.3171 75.362 18.5989 71.858 13.086C71.3527 12.4975 70.9393 11.9154 70.4538 11.5492C70.4603 11.5492 70.1979 11.1568 70.2044 11.1568C68.9249 9.65926 69.417 10.0843 67.8619 8.5933C66.7136 7.49465 65.27 6.56602 64.2332 5.6374C62.5534 4.14637 60.5652 3.40739 59.1478 2.93654C51.9693 0.425328 53.2947 -0.137078 44.8104 0.0525703C41.8641 0.117966 42.166 0.287996 39.5478 0.968116C36.1423 1.82481 35.2695 1.60246 31.8509 3.84555Z" fill="white"/>
</mask>
<g mask="url(#mask1_492_1286)">
<path fill-rule="evenodd" clip-rule="evenodd" d="M44.0493 14.6555C44.3184 14.662 44.5283 14.8843 44.5218 15.1459C44.5152 15.4075 44.2921 15.6168 44.0231 15.6102C43.754 15.6037 43.5441 15.3813 43.5506 15.1198C43.5638 14.8582 43.7868 14.6489 44.0493 14.6555ZM46.3787 14.7993C46.1753 14.42 45.552 13.7334 44.2659 13.596C42.632 13.426 41.674 14.3285 41.674 14.3285C41.1753 14.8189 40.6766 15.3094 40.1779 15.7999C38.7671 16.9574 37.7631 17.631 36.4311 18.9847C35.9718 19.449 35.7487 19.6517 35.2631 19.3574C33.872 18.5138 31.8904 16.7939 30.5058 16.0745C30.3024 15.9699 30.0202 16.0222 30.3615 16.2446C30.1515 16.1007 29.2853 15.6037 29.3575 15.9241C29.3969 16.0942 28.9704 15.8457 28.8194 15.9372C28.7145 15.9961 28.6292 15.9961 28.7998 16.153C28.4257 16.0549 28.2486 15.9895 27.8745 16.3165C27.7892 16.395 27.8352 16.4931 27.9402 16.6043C28.032 16.6958 28.1698 16.807 28.3207 16.9182C28.3732 16.9574 27.9467 16.8462 27.9992 16.8855C28.0714 16.9378 28.0452 17.0424 28.1173 17.0947C29.5412 18.0887 31.3064 18.8146 32.7893 19.7236C32.9074 19.7956 32.9796 19.8544 33.0846 19.9395C33.1568 20.0179 33.1699 20.0245 33.1765 20.0572C33.1896 20.116 33.1371 20.1945 33.0715 20.201C32.9862 20.2076 32.9534 20.1945 32.8484 20.1814C32.8221 20.1749 32.9009 20.3449 32.9862 20.3907C33.0977 20.4561 33.1568 20.4365 33.1633 20.4626C33.1699 20.4888 33.1043 20.4168 33.0124 20.5803C33.2552 20.5019 33.1437 20.7634 33.3864 20.9727C33.5308 21.097 33.5505 21.3389 33.9442 21.5744C33.7998 21.6332 33.9048 21.6136 33.8851 21.6398C33.2749 22.3133 32.54 23.2681 32.1791 24.3145C32.0806 24.5957 33.3733 24.2752 33.8851 23.9809C33.8786 23.9875 33.8654 24.0006 33.8589 24.0071C33.6227 24.236 33.5505 24.4322 33.557 24.4649C33.5899 24.5957 34.3379 24.2883 35.3222 23.8174C35.3222 23.8174 34.5872 24.2033 34.5676 24.321C34.5413 24.4649 35.2106 24.1837 35.2762 24.164C36.0111 23.9679 37.0938 24.406 37.0938 24.406C37.0938 24.406 37.212 25.4523 37.2316 25.9886C37.2316 26.0475 37.2316 26.0998 37.2316 26.1455C37.2316 26.2567 37.1923 26.4987 37.212 26.6295C37.2316 26.7799 37.1332 26.7733 37.1595 26.9761C37.2054 27.3619 36.9101 27.1984 36.9232 27.5777C36.9298 27.7804 36.9495 27.8393 37.0742 27.8851C37.1791 27.9309 37.1135 27.6562 37.2251 27.5581C37.2579 27.5319 37.4219 27.4731 37.4482 27.4273C37.8091 27.3815 37.6057 27.3227 37.8813 27.2573C38.1634 27.1919 38.7277 27.4469 39.0624 27.3161C39.1542 27.2769 39.2133 27.3946 39.3183 27.4077C39.3183 27.4077 39.2723 27.2704 39.1805 27.1526C39.0689 27.0219 38.8327 26.8518 38.4981 26.878C38.0584 26.9107 38.1437 26.5379 37.7697 26.4006C37.586 26.3352 37.54 24.3733 37.6057 24.3079C37.6385 24.2752 37.6385 24.236 37.7697 24.2033C38.0059 24.1444 38.7474 24.576 39.2723 24.6087C39.6529 24.6284 40.0007 24.5368 40.2304 24.5433C40.3682 24.5433 40.4535 24.5237 40.6569 24.6938C40.8931 24.8965 41.1359 25.1057 41.3721 25.3085C41.3721 25.3085 42.5073 26.3941 42.5664 26.5902C42.6189 26.793 42.4811 27.0022 42.4351 27.1265C42.2908 27.1788 41.8642 27.4142 42.0611 27.8785C42.258 28.3429 42.2842 28.127 42.2842 28.127C42.2842 28.127 42.0939 27.5581 42.3433 27.6497C42.5926 27.7412 43.0126 27.2965 43.0126 27.2965C43.2488 27.4339 43.4522 27.2769 43.5244 27.2704C43.859 27.3423 44.7777 27.2638 44.9942 27.2769C44.9286 27.1069 44.5415 26.9172 43.9575 26.8322C43.38 26.7472 43.6687 26.4921 43.0257 26.2633C42.7829 26.1782 41.9496 25.3608 41.5296 24.8572C41.2803 24.5564 41.1031 24.3602 41.5034 24.2818C43.5244 23.8894 45.342 22.3003 45.9457 20.3188C46.1294 19.7236 46.0769 19.1482 45.985 18.3896C45.9326 17.9318 46.0113 17.3302 46.1491 16.9574C46.2147 16.7743 46.3263 16.5389 46.4706 16.3427C46.9234 15.7476 47.4483 16.1596 48.4129 15.7672C48.4523 15.7606 48.5048 15.7868 48.5048 15.7868C48.3867 15.5579 47.9995 15.2309 47.2121 15.1917C46.7856 15.1852 46.5165 15.0609 46.3787 14.7993Z" fill="white"/>
</g>
</g>
<defs>
<clipPath id="clip0_492_1286">
<rect width="93" height="105" fill="white"/>
</clipPath>
</defs>
</svg>
