<svg width="1920" height="154" viewBox="0 0 1920 154" fill="none" xmlns="http://www.w3.org/2000/svg">
<g clip-path="url(#clip0_747_959)">
<mask id="mask0_747_959" style="mask-type:luminance" maskUnits="userSpaceOnUse" x="0" y="0" width="1921" height="154">
<path d="M1920.12 0.409973H0V154H1920.12V0.409973Z" fill="white"/>
</mask>
<g mask="url(#mask0_747_959)">
<path d="M1055.07 179.87C1055.5 179.88 1055.92 179.89 1056.35 179.9C1055.87 178.3 1055.58 176.78 1055.42 175.41C1054.45 167.28 1057.13 160.27 1060.21 156.94C1060.81 156.29 1062.52 155.22 1064.86 154C1070.95 150.83 1081.38 146.66 1088 146.2C1091.84 145.93 1095.46 145.95 1098.65 145.96C1101.62 145.98 1104.18 145.99 1106.16 145.74C1114.75 143.17 1121.96 140.74 1128.1 138.49C1127.79 138.19 1127.47 137.92 1127.15 137.68C1121.17 139.86 1114.16 142.22 1105.89 144.7C1104.1 144.92 1101.58 144.91 1098.66 144.89C1095.45 144.88 1091.8 144.86 1087.9 145.13C1080.36 145.65 1068.48 150.65 1062.58 154C1060.94 154.92 1059.77 155.72 1059.26 156.27C1055.37 160.48 1053.34 168.22 1054.21 175.53C1054.37 176.86 1054.64 178.33 1055.08 179.87H1055.07Z" fill="#7D6B00" fill-opacity="0.18"/>
<path d="M1153.01 127.99C1169.08 120.49 1171.98 119.13 1202.85 127.66C1217.9 131.82 1234.97 116.81 1253.03 100.91C1273.51 82.9099 1294.68 64.2799 1312.44 75.7599C1320.15 80.7499 1325.65 83.0299 1330.5 85.0399C1335.25 87.0099 1339.36 88.7199 1344.65 92.4499C1357.16 101.25 1366.56 100.72 1374.11 100.3C1378.29 100.06 1381.89 99.8599 1384.97 101.43C1398.16 108.14 1403.49 107.64 1411.58 106.88C1416.88 106.38 1423.48 105.76 1434.46 106.99C1435.05 107.06 1435.63 107.11 1436.21 107.15C1436.76 107.19 1437.31 107.22 1437.86 107.23C1447.29 107.53 1455.68 104.69 1463.83 101.94C1472.03 99.1699 1479.77 96.5599 1487.97 97.2999C1496.95 98.1099 1506.04 91.3699 1514.5 83.9599C1516.6 82.1199 1518.6 80.3299 1520.52 78.5899C1520.81 78.3299 1521.09 78.0799 1521.37 77.8199C1535.24 65.1799 1544.39 55.2499 1550.74 48.3599C1558.5 39.9399 1562.42 35.6599 1566.11 35.7299C1569.93 35.7499 1574.05 40.3299 1582.25 49.4599C1585.28 52.8199 1588.7 56.6299 1592.9 61.0999C1596.12 64.5399 1598.66 65.3499 1600.9 66.0599C1603.08 66.7499 1604.8 67.2899 1606.68 70.2299C1614 81.6799 1620.17 80.7799 1626.13 79.9099C1630.05 79.3399 1633.74 78.7999 1637.98 81.4899C1644.06 85.3599 1646.64 84.3899 1649.36 83.3699C1652.18 82.3099 1655.08 81.2199 1663.17 85.8999C1666.39 87.7599 1668.67 87.3299 1672.45 86.5999C1673.19 86.4599 1674 86.3099 1674.9 86.1499C1679.81 85.3099 1680.98 87.0099 1682.6 89.3499C1684.51 92.1299 1686.9 95.5799 1696.02 95.9199C1698.94 96.0299 1699.85 97.0699 1701.22 98.6499C1703.1 100.8 1705.68 103.76 1714.73 105.79C1718.07 106.55 1720.77 107.22 1722.94 107.76C1730.15 109.55 1732.58 110.15 1737.4 108.69C1748.63 105.28 1759.31 95.1999 1767.88 87.0999C1771.57 83.6099 1775.05 80.3299 1777.99 78.1299C1780.28 76.4199 1782.19 75.6899 1783.83 75.8799C1786.54 76.1999 1788.76 79.0499 1791.56 82.6599C1792.25 83.5499 1792.99 84.4899 1793.77 85.4499C1798.67 91.4699 1803.8 91.8999 1808.33 92.2899C1812.54 92.6499 1816.17 92.9499 1819.31 97.3299C1821.62 100.54 1824.23 101.01 1827.24 101.56C1829.64 101.99 1832.37 102.48 1835.78 104.4C1838.07 105.68 1839.78 105.88 1841.29 106.05C1842.8 106.22 1844.11 106.37 1845.92 107.49C1848.6 109.15 1851.81 109 1855.72 108.64C1861.29 108.12 1864.5 108.89 1870.88 110.42C1873.37 111.02 1876.46 111.77 1880.34 112.58C1882.92 113.12 1885.42 112.9 1888.07 112.67C1890.02 112.5 1892.03 112.33 1894.07 112.48C1895.98 112.63 1896.09 113.95 1895.87 116.72C1895.8 117.65 1895.72 118.61 1895.84 119.46L1895.9 119.86L1896.36 119.93C1915.99 122.62 1928.81 139.49 1931.65 150.62C1931.95 151.79 1932.16 152.92 1932.3 154C1932.34 154.33 1932.37 154.66 1932.4 154.99C1932.8 154.96 1933.2 154.93 1933.59 154.9C1933.56 154.6 1933.54 154.31 1933.51 154C1933.37 152.84 1933.15 151.64 1932.83 150.38C1929.94 139.05 1916.93 121.9 1897.01 118.93C1896.96 118.27 1897.02 117.52 1897.08 116.79C1897.26 114.51 1897.48 111.66 1894.16 111.41C1892.01 111.25 1889.95 111.43 1887.94 111.6C1885.4 111.83 1882.99 112.04 1880.62 111.54C1876.76 110.73 1873.67 109.99 1871.2 109.39C1864.67 107.82 1861.39 107.04 1855.59 107.57C1851.81 107.93 1848.96 108.07 1846.62 106.62C1844.56 105.34 1842.97 105.16 1841.44 104.99C1839.92 104.81 1838.49 104.65 1836.43 103.5C1832.83 101.47 1829.86 100.94 1827.48 100.5C1824.51 99.9699 1822.37 99.5799 1820.34 96.7499C1816.88 91.9399 1812.78 91.5899 1808.45 91.2199C1803.96 90.8399 1799.33 90.4499 1794.76 84.8299C1793.97 83.8699 1793.25 82.9399 1792.56 82.0499C1789.59 78.2299 1787.24 75.1999 1783.99 74.8199C1781.95 74.5799 1779.79 75.3699 1777.2 77.3099C1774.2 79.5499 1770.7 82.8599 1766.99 86.3599C1758.5 94.3799 1747.94 104.36 1737 107.68C1732.54 109.03 1730.39 108.5 1723.27 106.73C1721.09 106.19 1718.38 105.51 1715.03 104.76C1706.38 102.81 1703.96 100.03 1702.19 97.9999C1700.78 96.3799 1699.56 94.9799 1696.07 94.8499C1687.6 94.5299 1685.49 91.4899 1683.64 88.7999C1681.98 86.3899 1680.41 84.1199 1674.67 85.0999C1673.76 85.2599 1672.94 85.4099 1672.18 85.5599C1668.49 86.2599 1666.63 86.6199 1663.84 85.0099C1655.21 80.0099 1651.85 81.2699 1648.88 82.3799C1646.38 83.3199 1644.22 84.1299 1638.69 80.6199C1634.04 77.6699 1629.92 78.2699 1625.93 78.8499C1620.12 79.6999 1614.64 80.4999 1607.74 69.6999C1605.64 66.4199 1603.54 65.7499 1601.32 65.0499C1599.22 64.3799 1596.85 63.6299 1593.84 60.4199C1589.65 55.9599 1586.23 52.1499 1583.21 48.7999C1574.77 39.3999 1570.52 34.6799 1566.12 34.6599H1566.09C1561.8 34.6599 1557.78 39.0199 1549.79 47.6899C1543.51 54.5099 1534.46 64.3399 1520.79 76.8199C1520.51 77.0699 1520.23 77.3299 1519.94 77.5999C1517.94 79.4099 1515.84 81.2799 1513.64 83.2099C1508.48 87.7199 1497.77 97.1099 1488.1 96.2299C1479.61 95.4599 1471.73 98.1299 1463.39 100.95C1455.75 103.53 1447.88 106.18 1439.22 106.18C1438.66 106.18 1438.1 106.17 1437.53 106.14C1436.57 106.11 1435.6 106.04 1434.62 105.93C1423.5 104.68 1416.82 105.31 1411.45 105.81C1403.33 106.58 1398.43 107.04 1385.59 100.5C1382.19 98.7699 1378.41 98.9799 1374.04 99.2299C1366.7 99.6399 1357.56 100.16 1345.42 91.6099C1340.01 87.7999 1335.65 85.9899 1331.02 84.0799C1326.22 82.0799 1320.79 79.8299 1313.17 74.8999C1294.57 62.8699 1273.01 81.8299 1252.17 100.16C1234.37 115.82 1217.55 130.6 1203.22 126.64C1171.86 117.98 1168.52 119.54 1152.44 127.05C1146.82 129.68 1139.36 133.15 1128.38 137.22C1128.68 137.47 1128.97 137.75 1129.26 138.05C1140.08 134.03 1147.44 130.59 1153.01 127.99Z" fill="#7D6B00" fill-opacity="0.18"/>
<path d="M1274.51 118.37C1278.74 114.87 1279.91 115.89 1282.72 118.36C1284.66 120.07 1287.32 122.41 1292.06 123.94C1293.91 124.54 1298.1 126.87 1303.41 129.81C1318.19 138.02 1341.82 151.14 1357.23 151.14C1359.13 151.14 1360.9 150.94 1362.52 150.51C1383.03 145.02 1391.41 139.07 1400.27 132.77C1403.52 130.47 1406.87 128.09 1410.93 125.65C1420.75 119.74 1429.71 113.49 1437.86 107.23C1438.32 106.88 1438.77 106.53 1439.22 106.18C1457.07 92.3299 1470.95 78.4999 1481.26 68.2299C1491.17 58.3499 1498.34 51.2099 1502.12 51.0799C1502.71 51.0499 1503.22 51.2299 1503.66 51.5899C1508.16 55.4399 1508.62 57.8099 1509.05 60.0999C1509.44 62.1299 1509.8 64.0599 1512.84 66.5899C1514.62 68.0799 1516.23 70.9699 1518.1 74.3299C1518.68 75.3799 1519.29 76.4799 1519.94 77.5999C1520.13 77.9299 1520.32 78.2599 1520.52 78.5899C1523.45 83.5199 1527.25 88.8299 1533.24 92.8699C1535.82 94.6099 1536.62 95.8599 1537.33 96.9499C1538.08 98.1099 1538.73 99.0999 1540.97 100.19C1543.65 101.5 1545.59 102.34 1547.14 103.02C1549.39 104.01 1550.74 104.6 1552.34 105.69C1555.67 107.96 1557.8 106.56 1559.86 105.22C1562.02 103.8 1564.24 102.33 1568.52 104.37C1572.42 106.24 1579.68 101.74 1586.27 97.0899C1592.17 92.9299 1596.32 89.8599 1599.36 87.6299C1604.44 83.8699 1607.8 82.4699 1609.44 83.4199C1609.66 83.5599 1609.91 83.6999 1610.18 83.8499C1611.98 84.8599 1612.07 85.6799 1612.23 87.3199C1612.35 88.4699 1612.5 89.9099 1613.31 91.8799C1614.09 93.7799 1614.41 95.0499 1614.64 95.9899C1615.37 98.8499 1615.52 98.9199 1622.97 102.65C1624.18 103.26 1625.59 103.96 1627.24 104.79C1630.71 106.55 1632.07 108.09 1633.39 109.57C1634.79 111.16 1636.24 112.8 1640.09 114.57C1650.54 119.36 1658.94 123.37 1665.7 126.59C1685.95 136.24 1701.75 138.4 1713.09 133.05C1716.48 131.45 1720.7 129.47 1725.97 127.23L1726.11 127.17C1727.81 126.44 1728.59 126.11 1744.16 131.61C1747.76 132.88 1749.03 134 1750.38 135.17C1751.49 136.14 1752.63 137.14 1755.04 138.27C1755.83 138.65 1757.51 139.35 1760.26 140.51C1765.74 142.81 1775.77 147.02 1791.57 154C1796.37 156.11 1801.7 158.49 1807.61 161.14L1807.8 161.19C1830.4 163.49 1840.56 166.17 1846.98 169.19C1847.59 169.1 1848.19 169.02 1848.8 168.93C1842.34 165.61 1832.27 162.67 1808.04 160.22C1802.99 157.95 1798.36 155.89 1794.12 154.01C1777.14 146.5 1766.49 142.02 1760.78 139.62C1758.02 138.47 1756.36 137.77 1755.59 137.4C1753.33 136.34 1752.25 135.4 1751.2 134.48C1749.83 133.28 1748.42 132.04 1744.6 130.69C1728.55 125.02 1727.75 125.37 1725.6 126.28L1725.47 126.34C1720.18 128.58 1715.95 130.57 1712.55 132.17C1701.58 137.35 1686.14 135.2 1666.26 125.72C1659.49 122.5 1651.08 118.49 1640.63 113.69C1637 112.02 1635.7 110.54 1634.3 108.97C1632.92 107.41 1631.49 105.79 1627.83 103.93C1626.17 103.1 1624.76 102.39 1623.55 101.79C1618.78 99.3999 1616.19 97.3999 1615.78 95.7799C1615.53 94.8199 1615.2 93.5099 1614.4 91.5599C1613.64 89.7099 1613.5 88.3399 1613.38 87.2399C1613.21 85.5299 1613.08 84.2899 1610.81 83.0099C1610.54 82.8599 1610.3 82.7199 1610.08 82.5899C1606.9 80.7399 1606.59 80.9799 1598.62 86.8699C1595.59 89.0999 1591.45 92.1699 1585.55 96.3199C1582.07 98.7699 1572.82 105.29 1569.07 103.49C1564.16 101.14 1561.39 102.96 1559.17 104.42C1557.15 105.74 1555.69 106.7 1553.05 104.9C1551.37 103.75 1549.89 103.11 1547.66 102.13C1546.12 101.46 1544.2 100.61 1541.54 99.3199C1539.58 98.3699 1539.04 97.5299 1538.34 96.4699C1537.62 95.3399 1536.71 93.9499 1533.95 92.0799C1528.03 88.0899 1524.27 82.7599 1521.37 77.8299C1521.17 77.4899 1520.98 77.1599 1520.79 76.8299C1520.21 75.8199 1519.66 74.8399 1519.14 73.8999C1517.23 70.4599 1515.57 67.4799 1513.64 65.8699C1510.88 63.5699 1510.56 61.8899 1510.19 59.9499C1509.74 57.6099 1509.24 54.9599 1504.46 50.8799C1503.8 50.3199 1503 50.0399 1502.07 50.0799C1497.81 50.2299 1490.88 57.1299 1480.4 67.5799C1469.93 77.9999 1455.78 92.0999 1437.53 106.15C1437.09 106.49 1436.65 106.83 1436.21 107.16C1428.32 113.17 1419.69 119.15 1410.27 124.82C1406.18 127.29 1402.81 129.68 1399.55 132C1390.77 138.23 1382.48 144.12 1362.19 149.55C1347.96 153.36 1320.46 138.09 1304.03 128.97C1298.46 125.88 1294.43 123.64 1292.46 123C1287.97 121.55 1285.51 119.39 1283.53 117.66C1280.67 115.13 1278.78 113.47 1273.72 117.64C1243.57 142.54 1224.83 151.68 1212.21 154.61H1216.22C1228.6 150.88 1247.04 141.07 1274.51 118.38V118.37Z" fill="#7D6B00" fill-opacity="0.18"/>
<path d="M613.88 136.37C647.69 149.08 685.6 160.07 717.29 150.18C715.94 150.25 714.61 150.27 713.25 150.2C682.68 158.1 646.65 147.53 614.36 135.39C601.08 130.4 592.01 127.42 585.4 125.47C584.93 125.33 584.47 125.19 584.03 125.06C583.66 125.32 583.29 125.59 582.92 125.86C583.36 125.99 583.82 126.12 584.29 126.26C590.93 128.2 600.15 131.2 613.88 136.37Z" fill="#7D6B00" fill-opacity="0.18"/>
<path d="M731.42 144.08C736.68 141.09 741.72 139.06 746.6 137.09C756.7 133.02 766.24 129.17 777.68 117.59C780.44 114.79 781.84 113.08 782.76 111.95C783.89 110.57 786.04 109.35 789.23 108.29C789.92 108.06 790.72 107.8 791.62 107.5C798.59 112.43 802.31 115.55 805.04 117.84C809.9 121.92 811.6 123.34 822.32 127.37C822.71 127.52 823.11 127.67 823.53 127.82C826.04 128.75 829 129.81 832.55 131.07C839.4 133.5 844.17 135.26 847.65 136.54C854.67 139.13 856.55 139.82 859.84 140.21C877.18 142.28 886.7 134.98 892.39 130.62C894.58 128.94 896.32 127.61 897.15 128.01C900.14 129.46 903.75 131.95 907.92 134.84C919.16 142.61 934.55 153.25 952.65 153.25H952.67C962.14 153.25 971.13 155.7 979.79 160.68C980.18 160.46 980.61 160.28 981.09 160.17C972.04 154.83 962.63 152.18 952.67 152.18H952.65C934.97 152.18 919.77 141.67 908.67 134C904.46 131.09 900.82 128.58 897.73 127.08C896.16 126.32 894.34 127.71 891.58 129.82C886.05 134.06 876.78 141.15 860 139.16C856.87 138.78 855.02 138.1 848.12 135.56C844.64 134.27 839.86 132.51 833 130.08C829.66 128.9 826.85 127.89 824.46 127.01C824.04 126.85 823.64 126.7 823.25 126.55C812.32 122.47 810.69 121.1 805.88 117.07C803.1 114.74 799.29 111.55 792.11 106.48L791.84 106.28L791.51 106.39C790.47 106.74 789.57 107.04 788.8 107.3C783.77 108.96 783.67 108.99 781.77 111.33C780.86 112.45 779.49 114.13 776.76 116.89C765.5 128.3 756.07 132.1 746.09 136.13C741.17 138.11 736.1 140.16 730.76 143.18C726.36 145.68 721.78 147.64 717.05 149.12C718.44 149.05 719.87 148.91 721.42 148.76C724.84 147.47 728.18 145.92 731.42 144.08Z" fill="#7D6B00" fill-opacity="0.18"/>
<path d="M546.21 158.16C547.91 156.83 549.63 155.44 551.36 154C555.22 150.79 559.14 147.33 563.1 143.84C570.14 137.64 577.26 131.36 584.29 126.26C584.66 126 585.03 125.73 585.4 125.47C584.93 125.33 584.47 125.19 584.03 125.06C583.66 125.32 583.29 125.59 582.92 125.86C576.04 130.92 569.1 137.03 562.24 143.08C557.96 146.86 553.73 150.58 549.59 154C547.83 155.46 546.08 156.85 544.35 158.17C544.97 158.17 545.59 158.17 546.21 158.16Z" fill="#7D6B00" fill-opacity="0.18"/>
<path d="M823.53 127.82C815.39 134.85 806.71 140.99 798.12 140.21C789.91 139.47 782.17 142.09 773.97 144.87C764.85 147.96 755.42 151.15 744.59 149.93C733.61 148.69 727.01 149.32 721.7 149.82C720.15 149.96 718.71 150.1 717.29 150.18C715.94 150.25 714.61 150.27 713.25 150.2C708.54 149.95 703.35 148.57 695.09 144.35C692.01 142.78 688.4 142.98 684.22 143.22C676.67 143.65 667.26 144.18 654.75 135.35C649.46 131.61 645.35 129.9 640.59 127.93C635.74 125.91 630.24 123.62 622.53 118.62C611.19 111.27 598.46 116.22 585.4 125.47C584.93 125.33 584.47 125.19 584.03 125.06C597.69 115.26 611.1 109.88 623.26 117.76C630.88 122.7 636.32 124.96 641.12 126.96C645.74 128.88 650.11 130.7 655.52 134.51C667.66 143.08 676.8 142.56 684.15 142.15C688.52 141.9 692.3 141.69 695.7 143.42C706.01 148.68 711.2 149.43 717.05 149.12C718.44 149.05 719.87 148.91 721.42 148.76C721.47 148.76 721.52 148.75 721.57 148.75C726.95 148.24 733.63 147.61 744.75 148.87C755.27 150.05 764.56 146.91 773.53 143.87C781.88 141.04 789.75 138.38 798.25 139.15C807.07 139.94 816.77 132.18 822.32 127.37C822.71 127.52 823.11 127.67 823.53 127.82Z" fill="#7D6B00" fill-opacity="0.18"/>
<path d="M1190.49 154.56H1185.67C1184.72 154.34 1181.97 153.57 1181.16 153.37C1174.78 151.83 1171.57 151.06 1166 151.58C1162.08 151.95 1158.88 152.1 1156.19 150.43C1154.38 149.3 1153.07 149.16 1151.56 148.98C1150.05 148.81 1148.34 148.62 1146.05 147.33C1142.63 145.41 1139.91 144.91 1137.5 144.48C1134.49 143.94 1131.89 143.46 1129.58 140.24C1129.09 139.56 1128.59 138.99 1128.09 138.49C1127.78 138.19 1127.46 137.92 1127.14 137.68C1124.59 135.7 1121.76 135.46 1118.59 135.19C1114.06 134.8 1108.92 134.37 1104.02 128.34C1103.24 127.37 1102.51 126.43 1101.81 125.53C1099.01 121.92 1096.79 119.06 1094.08 118.74C1092.44 118.55 1090.53 119.28 1088.24 121C1085.3 123.2 1081.81 126.49 1078.13 129.98C1069.55 138.11 1058.87 148.22 1047.63 151.64C1042.81 153.1 1040.39 152.5 1033.17 150.7C1031 150.16 1028.29 149.48 1024.95 148.73C1015.9 146.69 1013.33 143.73 1011.44 141.57C1010.07 139.99 1009.16 138.94 1006.24 138.83C997.11 138.49 994.73 135.03 992.82 132.25C991.2 129.9 990.03 128.19 985.11 129.04C984.21 129.19 983.4 129.35 982.66 129.49C978.88 130.22 976.6 130.65 973.38 128.79C965.29 124.09 962.38 125.19 959.57 126.25C956.84 127.27 954.27 128.24 948.18 124.36C943.94 121.67 940.24 122.2 936.33 122.78C930.36 123.65 924.19 124.55 916.87 113.07C914.99 110.13 913.27 109.58 911.09 108.89C908.85 108.18 906.31 107.37 903.08 103.93C898.88 99.4399 895.46 95.6199 892.43 92.2499C884.22 83.0999 880.1 78.4999 876.28 78.4799C872.59 78.4199 868.67 82.7099 860.91 91.1499C853.56 99.1399 842.47 111.22 824.65 126.84C824.59 126.9 824.52 126.95 824.46 127.01C824.04 126.85 823.64 126.7 823.25 126.55C823.44 126.39 823.62 126.23 823.79 126.08C841.56 110.5 852.64 98.4499 859.96 90.4799C867.95 81.7799 871.98 77.4099 876.26 77.4099H876.3C880.7 77.4299 884.94 82.1599 893.4 91.5899C896.41 94.9499 899.83 98.7699 904.02 103.24C907.04 106.46 909.41 107.21 911.5 107.88C913.73 108.59 915.83 109.26 917.93 112.55C924.84 123.37 930.32 122.57 936.13 121.72C940.12 121.14 944.24 120.53 948.89 123.49C954.42 127.02 956.58 126.2 959.09 125.26C962.05 124.14 965.42 122.88 974.05 127.89C976.84 129.51 978.7 129.15 982.4 128.44C983.15 128.3 983.97 128.14 984.88 127.98C990.62 127 992.2 129.28 993.86 131.69C995.71 134.39 997.81 137.44 1006.29 137.76C1009.78 137.89 1011 139.29 1012.41 140.91C1014.18 142.95 1016.61 145.74 1025.25 147.69C1028.61 148.45 1031.32 149.12 1033.5 149.67C1040.62 151.44 1042.77 151.98 1047.23 150.62C1058.18 147.29 1068.74 137.29 1077.23 129.25C1080.94 125.74 1084.45 122.42 1087.44 120.18C1090.04 118.23 1092.2 117.44 1094.24 117.68C1097.49 118.06 1099.84 121.09 1102.81 124.93C1103.5 125.82 1104.23 126.75 1105.01 127.71C1109.59 133.34 1114.22 133.74 1118.7 134.12C1122.14 134.41 1125.44 134.69 1128.38 137.22C1128.68 137.47 1128.97 137.75 1129.26 138.05C1129.72 138.53 1130.16 139.06 1130.6 139.67C1132.63 142.5 1134.78 142.89 1137.74 143.43C1140.13 143.86 1143.09 144.4 1146.7 146.43C1148.76 147.58 1150.19 147.75 1151.71 147.92C1153.24 148.09 1154.83 148.28 1156.89 149.55C1159.23 151.01 1162.09 150.87 1165.86 150.52C1171.67 149.98 1174.94 150.76 1181.48 152.34C1183.45 152.81 1187.68 153.94 1190.49 154.56Z" fill="#7D6B00" fill-opacity="0.18"/>
<path d="M-50.1599 128.63C-48.5899 127.37 -47.0399 126.06 -45.4999 124.72C-27.6999 109.13 -16.5999 97.0899 -9.25988 89.1199C-1.49988 80.6899 2.42012 76.4199 6.11012 76.4799C9.93012 76.4999 14.0501 81.0899 22.2501 90.2199C25.2801 93.5799 28.7001 97.3899 32.9001 101.86C36.1201 105.29 38.6601 106.1 40.9001 106.81C43.0801 107.5 44.8001 108.05 46.6801 110.98C54.0001 122.43 60.1701 121.53 66.1301 120.66C70.0501 120.09 73.7501 119.55 77.9801 122.24C84.0601 126.11 86.6401 125.15 89.3601 124.12C92.1801 123.07 95.0801 121.97 103.17 126.65C106.03 128.31 108.15 128.15 111.24 127.59C111.95 127.09 112.68 126.59 113.43 126.08C112.99 126.16 112.58 126.24 112.18 126.31C108.49 127.02 106.63 127.37 103.84 125.76C95.2101 120.76 91.8501 122.02 88.8801 123.14C86.3801 124.08 84.2201 124.89 78.6901 121.38C74.0401 118.42 69.9201 119.02 65.9301 119.6C60.1201 120.45 54.6401 121.25 47.7401 110.46C45.6401 107.17 43.5401 106.51 41.3201 105.8C39.2201 105.14 36.8501 104.38 33.8401 101.18C29.6501 96.7099 26.2301 92.9099 23.2101 89.5499C14.7701 80.1499 10.5201 75.4299 6.12012 75.4099H6.09012C1.80012 75.4099 -2.21988 79.7699 -10.2099 88.4399C-17.5299 96.3899 -28.5999 108.41 -46.3599 123.96C-47.5299 124.98 -48.9799 126.25 -50.6299 127.59C-50.4699 127.94 -50.3099 128.28 -50.1499 128.63H-50.1599Z" fill="#7D6B00" fill-opacity="0.18"/>
<path d="M328.07 153.42C328.71 153.37 329.36 153.31 330.02 153.27C330.03 153.27 330.04 153.27 330.04 153.27C331.37 153.19 332.71 153.14 334.07 153.24C334.19 153.25 334.31 153.26 334.42 153.29H334.43C335.52 153.49 335.89 154.21 335.94 155.51C336.05 155.51 336.16 155.52 336.27 155.53C336.57 155.53 336.86 155.53 337.16 155.53C337.12 154.5 336.89 153.53 336.16 152.9C335.75 152.54 335.18 152.3 334.39 152.2H334.37C334.3 152.19 334.24 152.19 334.17 152.18C332.02 152.02 329.96 152.2 327.95 152.38C325.41 152.6 323 152.81 320.62 152.31C316.77 151.5 313.68 150.76 311.21 150.17C304.68 148.6 301.4 147.81 295.6 148.35C291.82 148.7 288.97 148.84 286.63 147.39C284.57 146.11 282.98 145.93 281.45 145.76C279.93 145.59 278.5 145.42 276.44 144.27C272.84 142.24 269.87 141.71 267.49 141.28C264.52 140.74 262.38 140.36 260.35 137.53C256.89 132.71 252.79 132.37 248.46 132C243.97 131.61 239.34 131.22 234.77 125.6C233.99 124.64 233.26 123.71 232.57 122.83C229.6 119 227.25 115.98 224 115.59C221.96 115.35 219.8 116.15 217.21 118.09C214.21 120.32 210.71 123.63 207 127.14C198.51 135.15 187.95 145.13 177.01 148.45C172.55 149.8 170.4 149.27 163.28 147.5C161.1 146.96 158.39 146.29 155.04 145.53C146.39 143.58 143.97 140.8 142.19 138.77C140.78 137.15 139.57 135.76 136.08 135.63C127.61 135.31 125.51 132.26 123.65 129.57C122.13 127.37 120.69 125.28 116.07 125.7C115.35 126.16 114.66 126.63 113.98 127.09C114.28 127.04 114.59 126.98 114.91 126.93C119.82 126.08 120.99 127.78 122.61 130.13C124.52 132.9 126.91 136.35 136.03 136.7C138.95 136.81 139.86 137.85 141.23 139.42C143.11 141.58 145.69 144.53 154.74 146.57C158.08 147.32 160.78 147.99 162.95 148.53C170.16 150.32 172.59 150.93 177.41 149.46C188.64 146.06 199.32 135.97 207.89 127.87C211.58 124.39 215.06 121.1 218 118.9C220.29 117.2 222.2 116.46 223.84 116.66C226.55 116.98 228.77 119.82 231.57 123.43C232.27 124.32 233 125.26 233.78 126.23C238.68 132.24 243.81 132.68 248.35 133.06C252.55 133.42 256.18 133.73 259.32 138.1C261.63 141.32 264.24 141.78 267.25 142.33C269.65 142.76 272.38 143.25 275.79 145.17C278.08 146.45 279.79 146.65 281.3 146.82C282.81 146.99 284.12 147.14 285.93 148.26C288.61 149.92 291.82 149.78 295.73 149.41C301.3 148.89 304.51 149.66 310.89 151.2C313.38 151.8 316.47 152.54 320.35 153.36C322.93 153.9 325.43 153.68 328.08 153.44L328.07 153.42Z" fill="#7D6B00" fill-opacity="0.18"/>
<path d="M-47.8298 133.87C-40.8698 128.94 -33.0198 122.92 -24.0898 115.53C-19.6198 111.84 -18.3898 112.92 -15.4198 115.52C-13.3698 117.33 -10.5598 119.8 -5.5598 121.42C-3.5998 122.05 0.820206 124.51 6.43021 127.62C22.0302 136.29 46.9902 150.14 63.2602 150.14C65.2702 150.14 67.1402 149.93 68.8502 149.47C90.5002 143.68 99.3502 137.4 108.71 130.75C110.41 129.54 112.14 128.32 113.97 127.07C114.65 126.61 115.34 126.14 116.06 125.68C117.29 124.87 118.59 124.05 119.96 123.22C153.86 102.82 178.15 78.6099 194.23 62.5999C204.7 52.1599 212.27 44.6199 216.26 44.4799C216.88 44.4499 217.42 44.6299 217.88 45.0199C222.64 49.0799 223.12 51.5899 223.58 54.0099C223.99 56.1499 224.37 58.1799 227.58 60.8599C229.46 62.4299 231.16 65.4899 233.13 69.0299C236.6 75.2899 240.93 83.0799 249.12 88.6099C251.84 90.4499 252.69 91.7599 253.44 92.9199C254.24 94.1399 254.92 95.1899 257.28 96.3399C260.11 97.7199 262.16 98.6099 263.8 99.3299C266.17 100.37 267.6 100.99 269.29 102.15C272.81 104.55 275.05 103.07 277.23 101.65C279.51 100.15 281.86 98.5999 286.37 100.75C290.49 102.72 298.16 97.9699 305.12 93.0599C311.35 88.6799 315.73 85.4399 318.94 83.0699C324.3 79.1099 327.85 77.6299 329.58 78.6299C329.82 78.7699 330.08 78.9299 330.37 79.0899C332.27 80.1499 332.36 81.0199 332.53 82.7499C332.66 83.9699 332.82 85.4799 333.67 87.5699C334.48 89.5699 334.83 90.9099 335.08 91.8999C335.85 94.9299 336 94.9999 343.87 98.9399C345.15 99.5799 346.64 100.32 348.38 101.2C352.05 103.05 353.48 104.68 354.87 106.25C356.35 107.92 357.89 109.65 361.95 111.52C372.98 116.58 381.86 120.82 388.99 124.22C395.91 127.52 402.34 129.99 408.28 131.63C404.35 132.87 400.5 134.07 396.75 135.23C384.81 138.93 374.49 142.14 366.73 145.35C355.26 150.1 351.75 150.25 347.32 150.43C344.39 150.55 340.89 150.69 334.38 152.18C335.17 152.28 335.74 152.52 336.15 152.88C341.54 151.73 344.59 151.61 347.37 151.49C351.94 151.3 355.55 151.15 367.25 146.31C374.96 143.12 385.24 139.93 397.15 136.23C401.38 134.92 405.76 133.56 410.22 132.14C421.76 135.02 431.36 134.65 439.04 131.04C442.62 129.35 447.07 127.25 452.64 124.89L452.78 124.83C454.58 124.06 455.4 123.71 471.84 129.52C475.64 130.86 476.99 132.04 478.41 133.28C479.58 134.3 480.79 135.36 483.33 136.56C484.17 136.95 485.94 137.69 488.85 138.92C495.6 141.75 508.87 147.32 530.71 157.06C531.45 156.98 532.19 156.92 532.93 156.87C510.09 146.67 496.31 140.87 489.39 137.97C486.48 136.75 484.73 136.01 483.91 135.62C481.53 134.51 480.39 133.5 479.28 132.54C477.83 131.27 476.34 129.96 472.31 128.54C455.36 122.55 454.52 122.91 452.25 123.88L452.11 123.94C446.52 126.31 442.06 128.41 438.47 130.1C431.44 133.42 422.69 133.89 412.2 131.5C439.79 122.65 470.19 111.38 489.54 93.7299C497.51 86.4599 502.71 83.1999 505.96 83.4899C508.04 83.6699 509.23 85.3199 510.61 87.2199C511.05 87.8299 511.51 88.4699 512.02 89.0699C521.72 100.66 524.29 101.7 530.49 104.21C533.6 105.47 537.85 107.19 544.53 110.95C561.22 120.33 565.09 121.29 573.55 123.39C576.05 124.01 579.02 124.75 582.92 125.86C583.29 125.59 583.66 125.32 584.03 125.06C579.75 123.83 576.55 123.03 573.89 122.37C565.54 120.29 561.73 119.35 545.19 110.05C538.44 106.26 534.14 104.52 531.01 103.25C524.83 100.75 522.52 99.8099 513 88.4499C512.52 87.8699 512.07 87.2499 511.64 86.6599C510.15 84.5999 508.75 82.6699 506.09 82.4299C502.37 82.1099 497.02 85.3699 488.66 92.9999C469.11 110.83 438.07 122.13 410.18 131.02C403.91 129.43 397.04 126.85 389.58 123.29C382.44 119.88 373.55 115.65 362.52 110.58C358.69 108.82 357.31 107.26 355.84 105.6C354.38 103.95 352.87 102.24 348.99 100.28C347.25 99.3999 345.76 98.6499 344.48 98.0099C339.45 95.4999 336.71 93.3799 336.28 91.6699C336.02 90.6599 335.67 89.2799 334.82 87.2099C334.02 85.2599 333.87 83.8199 333.75 82.6599C333.57 80.8499 333.43 79.5399 331.03 78.1899C330.75 78.0299 330.49 77.8799 330.26 77.7499C326.9 75.7999 326.57 76.0399 318.16 82.2599C314.96 84.6199 310.59 87.8599 304.36 92.2399C300.68 94.8299 290.92 101.71 286.96 99.8199C281.77 97.3399 278.85 99.2499 276.5 100.8C274.37 102.19 272.83 103.21 270.04 101.31C268.26 100.09 266.7 99.4099 264.35 98.3799C262.71 97.6599 260.68 96.7799 257.88 95.4099C255.81 94.4099 255.24 93.5199 254.51 92.3999C253.74 91.2099 252.78 89.7299 249.87 87.7699C241.9 82.3899 237.64 74.7199 234.23 68.5699C232.21 64.9299 230.46 61.7899 228.42 60.0899C225.51 57.6599 225.17 55.8899 224.78 53.8399C224.31 51.3699 223.78 48.5699 218.73 44.2599C218.03 43.6599 217.19 43.3699 216.21 43.4099C211.71 43.5699 204.39 50.8599 193.32 61.8899C177.28 77.8699 153.04 102.01 119.27 122.34C117.17 123.61 115.24 124.85 113.43 126.08C112.68 126.59 111.95 127.09 111.24 127.59C110.12 128.37 109.03 129.15 107.95 129.91C98.6802 136.5 89.9202 142.72 68.5002 148.45C53.4702 152.48 24.4302 136.35 7.08021 126.72C1.20021 123.45 -3.0598 121.09 -5.1298 120.42C-9.8798 118.88 -12.4698 116.6 -14.5598 114.77C-17.5798 112.11 -19.5798 110.35 -24.9198 114.77C-33.7098 122.03 -41.4298 127.97 -48.2898 132.83C-48.1398 133.18 -47.9898 133.53 -47.8398 133.87H-47.8298Z" fill="#7D6B00" fill-opacity="0.18"/>
</g>
</g>
<defs>
<clipPath id="clip0_747_959">
<rect width="1920" height="154" fill="white"/>
</clipPath>
</defs>
</svg>
